<?xml version="1.0" encoding="utf-8"?>
<!-- Generator: Adobe Illustrator 22.1.0, SVG Export Plug-In . SVG Version: 6.00 Build 0)  -->
<svg version="1.1" id="Layer_1" xmlns="http://www.w3.org/2000/svg" xmlns:xlink="http://www.w3.org/1999/xlink" x="0px" y="0px"
	 viewBox="0 0 506.1 105.9" style="enable-background:new 0 0 506.1 105.9;" xml:space="preserve">
<style type="text/css">
	.st0{fill-rule:evenodd;clip-rule:evenodd;fill:#F16623;}
	.st1{fill:#24292D;}
	.st2{fill:#F16623;}
</style>
<g>
	<g>
		<g>
			<polygon class="st0" points="64.7,94.7 26.1,63.6 26.3,1.5 65,33.1 			"/>
			<polygon class="st0" points="72.2,94.7 110.9,63.9 110.8,1.7 72.2,32.9 			"/>
			<path class="st1" d="M33,6.5L33,0c0,0,12,9.8,18.5,16s15.3,16.4,15.3,16.4l-1.3,0.1L33,6.5z"/>
			<path class="st1" d="M42.6,7.3V0c0,0,10,7.3,14.8,13s11.1,19.5,11.1,19.5h-1c0,0-10.7-12.2-15.1-16.4S42.6,7.3,42.6,7.3z"/>
			<path class="st1" d="M104.1,6.5l0.1-6.5c0,0-15.9,14.3-20.7,18.3c-4.7,4-13.2,14.2-13.2,14.2l1.6,0L104.1,6.5z"/>
			<path class="st1" d="M94.5,7.7V0c0,0-11,5.1-17.4,14c-6.4,8.8-8.2,18.5-8.2,18.5h0.7c0,0,7.2-9.3,13.2-14.4
				C88.7,12.9,94.5,7.7,94.5,7.7z"/>
		</g>
		<polygon class="st1" points="64.9,32.9 72.2,32.9 72.2,94.7 64.9,94.6 		"/>
	</g>
	<g>
		<path class="st2" d="M158.9,16.9v18.8h25.7v11.1h-25.7v19.5h28.8v11.6h-43.2V5.4h43.2v11.5H158.9z"/>
		<path class="st1" d="M232.9,23.7c3.4,2.3,5.8,5.3,7.3,9.1V1.9h14.4v76h-14.4V66c-1.5,3.8-4,6.9-7.3,9.2c-3.4,2.3-7.5,3.4-12.3,3.4
			c-4.8,0-9.1-1.2-12.9-3.5c-3.8-2.3-6.8-5.7-9-10.1c-2.2-4.4-3.2-9.6-3.2-15.6c0-6,1.1-11.1,3.2-15.6c2.2-4.4,5.2-7.8,9-10.1
			c3.8-2.3,8.1-3.5,12.9-3.5C225.4,20.3,229.5,21.5,232.9,23.7z M214.2,37.4c-2.7,2.9-4.1,7-4.1,12.1c0,5.1,1.4,9.2,4.1,12.1
			c2.7,2.9,6.4,4.4,10.9,4.4c4.4,0,8-1.5,10.8-4.5c2.8-3,4.3-7,4.3-12c0-5.1-1.4-9.1-4.3-12.1c-2.8-3-6.5-4.5-10.8-4.5
			C220.6,33,217,34.4,214.2,37.4z"/>
		<path class="st1" d="M322.2,21v56.9h-14.5V66.4c-1.5,3.8-4,6.8-7.4,9c-3.5,2.2-7.4,3.2-12,3.2c-6.6,0-11.8-2.2-15.7-6.5
			c-3.9-4.3-5.9-10.3-5.9-18.1V21h14.4v31.4c0,4.5,1.2,8,3.5,10.5c2.3,2.5,5.5,3.7,9.4,3.7c4.2,0,7.5-1.3,10-4s3.7-6.5,3.7-11.5V21
			H322.2z"/>
		<path class="st1" d="M349.8,1.9v76h-14.5v-76H349.8z"/>
		<path class="st1" d="M404.2,23.8c4.4,2.3,7.9,5.7,10.4,10.1c2.5,4.4,3.8,9.6,3.8,15.6c0,6-1.3,11.1-3.8,15.5
			c-2.5,4.4-6,7.8-10.4,10.1c-4.4,2.4-9.4,3.5-14.9,3.5c-5.5,0-10.5-1.2-14.9-3.5c-4.4-2.4-7.9-5.7-10.4-10.1
			c-2.5-4.4-3.8-9.6-3.8-15.5c0-6,1.3-11.1,3.8-15.6c2.5-4.4,6-7.8,10.4-10.1c4.4-2.3,9.4-3.5,14.9-3.5
			C394.8,20.3,399.8,21.5,404.2,23.8z M379,37.1c-2.8,2.8-4.2,7-4.2,12.4c0,5.4,1.4,9.5,4.2,12.4c2.8,2.8,6.2,4.3,10.3,4.3
			c4,0,7.5-1.4,10.3-4.3c2.8-2.8,4.2-7,4.2-12.4c0-5.4-1.4-9.5-4.2-12.4c-2.8-2.8-6.2-4.3-10.3-4.3C385.2,32.9,381.8,34.3,379,37.1z
			"/>
		<path class="st1" d="M463.3,23.7c3.4,2.3,5.9,5.3,7.3,9.1V21H485v57.1c0,5.3-1,10-3.1,14.2c-2.1,4.2-5.2,7.5-9.3,9.9
			c-4.1,2.4-9.2,3.6-15,3.6c-8.2,0-14.9-2-19.9-5.9c-5.1-3.9-8.1-9.2-9.2-15.9h14.3c0.8,2.9,2.4,5.1,4.8,6.7
			c2.4,1.6,5.4,2.4,9.1,2.4c4.2,0,7.7-1.3,10.3-3.7c2.6-2.5,3.9-6.3,3.9-11.3V66c-1.4,3.8-3.9,6.9-7.3,9.2
			c-3.4,2.3-7.5,3.4-12.3,3.4c-4.8,0-9.1-1.2-12.9-3.5c-3.8-2.3-6.8-5.7-9-10.1c-2.2-4.4-3.2-9.6-3.2-15.6c0-6,1.1-11.1,3.2-15.6
			c2.2-4.4,5.2-7.8,9-10.1c3.8-2.3,8.1-3.5,12.9-3.5C455.8,20.3,459.9,21.5,463.3,23.7z M444.6,37.4c-2.7,2.9-4.1,7-4.1,12.1
			c0,5.1,1.4,9.2,4.1,12.1c2.7,2.9,6.4,4.4,10.9,4.4c4.4,0,8-1.5,10.8-4.5c2.8-3,4.3-7,4.3-12c0-5.1-1.4-9.1-4.3-12.1
			c-2.8-3-6.5-4.5-10.8-4.5C451,33,447.4,34.4,444.6,37.4z"/>
	</g>
</g>
</svg>
