<?xml version="1.0" encoding="utf-8"?>
<!-- Generator: Adobe Illustrator 22.1.0, SVG Export Plug-In . SVG Version: 6.00 Build 0)  -->
<svg version="1.1" id="Layer_1" xmlns="http://www.w3.org/2000/svg" xmlns:xlink="http://www.w3.org/1999/xlink" x="0px" y="0px"
	 viewBox="0 0 506.1 105.9" style="enable-background:new 0 0 506.1 105.9;" xml:space="preserve">
<style type="text/css">
	.st0{fill-rule:evenodd;clip-rule:evenodd;fill:#F16623;}
	.st1{fill:#24292D;}
	.st2{fill:#F16623;}
</style>
<g>
	<g>
		<g>
			<polygon class="st0" points="44,94.7 5.5,63.6 5.6,1.5 44.3,33.1 			"/>
			<polygon class="st0" points="51.5,94.7 90.3,63.9 90.1,1.7 51.5,32.9 			"/>
			<path class="st1" d="M12.4,6.5L12.3,0c0,0,12,9.8,18.5,16S46,32.4,46,32.4l-1.3,0.1L12.4,6.5z"/>
			<path class="st1" d="M21.9,7.3V0c0,0,10,7.3,14.8,13s11.1,19.5,11.1,19.5h-1c0,0-10.7-12.2-15.1-16.4S21.9,7.3,21.9,7.3z"/>
			<path class="st1" d="M83.4,6.5L83.4,0c0,0-15.9,14.3-20.7,18.3S49.5,32.5,49.5,32.5l1.6,0L83.4,6.5z"/>
			<path class="st1" d="M73.8,7.7V0c0,0-11,5.1-17.4,14s-8.2,18.5-8.2,18.5h0.7c0,0,7.2-9.3,13.2-14.4S73.8,7.7,73.8,7.7z"/>
		</g>
		<polygon class="st1" points="44.2,32.9 51.5,32.9 51.5,94.7 44.2,94.6 		"/>
	</g>
	<g>
		<path class="st2" d="M126.6,19v17.3h23.6v10.2h-23.6v17.9H153V75h-39.7V8.4H153V19H126.6z"/>
		<path class="st1" d="M194.6,25.2c3.1,2.1,5.4,4.9,6.7,8.4V5.2h13.2V75h-13.2V64.1c-1.4,3.5-3.6,6.3-6.7,8.4
			c-3.1,2.1-6.9,3.2-11.3,3.2c-4.4,0-8.4-1.1-11.9-3.2c-3.5-2.1-6.3-5.2-8.3-9.3c-2-4.1-3-8.8-3-14.3c0-5.5,1-10.2,3-14.3
			c2-4.1,4.7-7.2,8.3-9.3c3.5-2.1,7.5-3.2,11.9-3.2C187.7,22.1,191.5,23.1,194.6,25.2z M177.5,37.8c-2.5,2.7-3.8,6.4-3.8,11.1
			c0,4.7,1.3,8.4,3.8,11.1c2.5,2.7,5.8,4,10,4c4,0,7.3-1.4,10-4.1c2.6-2.7,3.9-6.4,3.9-11c0-4.7-1.3-8.3-3.9-11.1
			c-2.6-2.7-5.9-4.1-10-4.1C183.3,33.7,180,35.1,177.5,37.8z"/>
		<path class="st1" d="M276.6,22.8V75h-13.3V64.5c-1.4,3.5-3.7,6.3-6.8,8.3c-3.2,2-6.8,3-11,3c-6,0-10.8-2-14.4-5.9
			c-3.6-4-5.4-9.5-5.4-16.6V22.8h13.2v28.9c0,4.1,1.1,7.4,3.2,9.7c2.1,2.3,5,3.4,8.7,3.4c3.8,0,6.9-1.2,9.2-3.7
			c2.3-2.5,3.4-6,3.4-10.6V22.8H276.6z"/>
		<path class="st1" d="M370.3,27.9c3.7,3.9,5.5,9.5,5.5,16.7V75h-13.2V46.2c0-4-1-7.1-3.1-9.3c-2-2.2-4.9-3.3-8.4-3.3
			c-3.7,0-6.7,1.2-8.9,3.5c-2.2,2.3-3.3,5.7-3.3,10.2V75h-13.2V46.2c0-4-1-7.1-3.1-9.3c-2-2.2-4.9-3.3-8.4-3.3
			c-3.7,0-6.7,1.2-8.9,3.5c-2.2,2.3-3.3,5.7-3.3,10.2V75h-13.3V22.8H302v9.9c1.4-3.4,3.6-6,6.6-7.9c3-1.9,6.5-2.8,10.4-2.8
			c4.2,0,7.9,1,11,3c3.1,2,5.5,4.9,7,8.7c1.6-3.6,4.1-6.4,7.3-8.5c3.2-2.1,6.9-3.2,10.9-3.2C361.6,22,366.6,24,370.3,27.9z"/>
		<path class="st1" d="M419.3,25.2c3.1,2.1,5.4,4.9,6.7,8.4V22.8h13.2V75H426V64.1c-1.3,3.5-3.6,6.3-6.7,8.4
			c-3.1,2.1-6.9,3.2-11.3,3.2c-4.4,0-8.4-1.1-11.9-3.2c-3.5-2.1-6.3-5.2-8.3-9.3c-2-4.1-3-8.8-3-14.3c0-5.5,1-10.2,3-14.3
			c2-4.1,4.7-7.2,8.3-9.3c3.5-2.1,7.5-3.2,11.9-3.2C412.4,22.1,416.1,23.1,419.3,25.2z M402.1,37.8c-2.5,2.7-3.8,6.4-3.8,11.1
			c0,4.7,1.3,8.4,3.8,11.1c2.5,2.7,5.8,4,10,4c4,0,7.3-1.4,10-4.1c2.6-2.7,3.9-6.4,3.9-11c0-4.7-1.3-8.3-3.9-11.1
			c-2.6-2.7-5.9-4.1-10-4.1C407.9,33.7,404.6,35.1,402.1,37.8z"/>
		<path class="st1" d="M483,25.2c3.1,2.1,5.4,4.9,6.7,8.4V22.8h13.2v52.5c0,4.8-1,9.2-2.9,13.1c-1.9,3.9-4.8,6.9-8.6,9.1
			c-3.8,2.2-8.4,3.3-13.8,3.3c-7.5,0-13.6-1.8-18.3-5.4c-4.7-3.6-7.5-8.5-8.5-14.6H464c0.8,2.6,2.2,4.7,4.4,6.2
			c2.2,1.5,5,2.2,8.3,2.2c3.9,0,7-1.1,9.4-3.4c2.4-2.3,3.6-5.8,3.6-10.4V64.1c-1.3,3.5-3.6,6.3-6.7,8.4c-3.1,2.1-6.9,3.2-11.3,3.2
			c-4.4,0-8.4-1.1-11.9-3.2c-3.5-2.1-6.3-5.2-8.3-9.3c-2-4.1-3-8.8-3-14.3c0-5.5,1-10.2,3-14.3c2-4.1,4.7-7.2,8.3-9.3
			c3.5-2.1,7.5-3.2,11.9-3.2C476.1,22.1,479.9,23.1,483,25.2z M465.9,37.8c-2.5,2.7-3.8,6.4-3.8,11.1c0,4.7,1.3,8.4,3.8,11.1
			c2.5,2.7,5.8,4,10,4c4,0,7.3-1.4,10-4.1c2.6-2.7,3.9-6.4,3.9-11c0-4.7-1.3-8.3-3.9-11.1c-2.6-2.7-5.9-4.1-10-4.1
			C471.7,33.7,468.4,35.1,465.9,37.8z"/>
	</g>
</g>
</svg>
